<?xml version="1.0" encoding="utf-8"?>
<!-- Generator: Adobe Illustrator 21.0.2, SVG Export Plug-In . SVG Version: 6.00 Build 0)  -->
<svg version="1.1" id="图层_1" xmlns="http://www.w3.org/2000/svg" xmlns:xlink="http://www.w3.org/1999/xlink" x="0px" y="0px"
	 viewBox="0 0 40 40" style="enable-background:new 0 0 40 40;" xml:space="preserve">
<style type="text/css">
	.st0{fill:#FFFFFF;stroke:#F05D4A;stroke-miterlimit:10;}
	.st1{fill:#F05D4A;}
	.st2{fill:#FFFFFF;}
</style>
<path class="st0" d="M25.7,11.7h7c1.8,0,3.3,1.5,3.3,3.3v20.4c0,1.8-1.5,3.3-3.3,3.3h-7c-1,0-1.8-0.8-1.8-1.8V13.6
	C23.8,12.6,24.6,11.7,25.7,11.7z"/>
<rect x="1" y="35.9" class="st1" width="38" height="3.2"/>
<path class="st1" d="M23.7,39H6.7C5.2,39,4,37.8,4,36.3V3.7C4,2.2,5.2,1,6.7,1h17.1c1.5,0,2.7,1.2,2.7,2.7v32.7
	C26.4,37.8,25.2,39,23.7,39z"/>
<path class="st2" d="M21.8,11.2h-3c-0.9,0-1.6-0.7-1.6-1.6v0c0-0.9,0.7-1.6,1.6-1.6h3c0.9,0,1.6,0.7,1.6,1.6v0
	C23.4,10.5,22.7,11.2,21.8,11.2z"/>
<path class="st2" d="M12.3,11.2h-3c-0.9,0-1.6-0.7-1.6-1.6v0c0-0.9,0.7-1.6,1.6-1.6h3c0.9,0,1.6,0.7,1.6,1.6v0
	C13.9,10.5,13.2,11.2,12.3,11.2z"/>
<path class="st2" d="M21.8,17.7h-3c-0.9,0-1.6-0.7-1.6-1.6v0c0-0.9,0.7-1.6,1.6-1.6h3c0.9,0,1.6,0.7,1.6,1.6v0
	C23.4,17,22.7,17.7,21.8,17.7z"/>
<path class="st2" d="M12.3,17.7h-3c-0.9,0-1.6-0.7-1.6-1.6v0c0-0.9,0.7-1.6,1.6-1.6h3c0.9,0,1.6,0.7,1.6,1.6v0
	C13.9,17,13.2,17.7,12.3,17.7z"/>
<path class="st2" d="M21.8,24.2h-3c-0.9,0-1.6-0.7-1.6-1.6v0c0-0.9,0.7-1.6,1.6-1.6h3c0.9,0,1.6,0.7,1.6,1.6v0
	C23.4,23.5,22.7,24.2,21.8,24.2z"/>
<path class="st2" d="M12.3,24.2h-3c-0.9,0-1.6-0.7-1.6-1.6v0c0-0.9,0.7-1.6,1.6-1.6h3c0.9,0,1.6,0.7,1.6,1.6v0
	C13.9,23.5,13.2,24.2,12.3,24.2z"/>
<path class="st2" d="M21.8,30.4h-3c-0.9,0-1.6-0.7-1.6-1.6v0c0-0.9,0.7-1.6,1.6-1.6h3c0.9,0,1.6,0.7,1.6,1.6v0
	C23.4,29.7,22.7,30.4,21.8,30.4z"/>
<path class="st2" d="M12.3,30.4h-3c-0.9,0-1.6-0.7-1.6-1.6v0c0-0.9,0.7-1.6,1.6-1.6h3c0.9,0,1.6,0.7,1.6,1.6v0
	C13.9,29.7,13.2,30.4,12.3,30.4z"/>
<path class="st1" d="M31.7,16.9h-1.6c-0.4,0-0.8-0.4-0.8-0.8v0c0-0.4,0.4-0.8,0.8-0.8h1.6c0.4,0,0.8,0.4,0.8,0.8v0
	C32.5,16.6,32.1,16.9,31.7,16.9z"/>
<path class="st1" d="M31.7,22.5h-1.6c-0.4,0-0.8-0.4-0.8-0.8v0c0-0.4,0.4-0.8,0.8-0.8h1.6c0.4,0,0.8,0.4,0.8,0.8v0
	C32.5,22.2,32.1,22.5,31.7,22.5z"/>
<path class="st1" d="M31.7,27.9h-1.6c-0.4,0-0.8-0.4-0.8-0.8v0c0-0.4,0.4-0.8,0.8-0.8h1.6c0.4,0,0.8,0.4,0.8,0.8v0
	C32.5,27.5,32.1,27.9,31.7,27.9z"/>
<path class="st1" d="M31.7,33.5h-1.6c-0.4,0-0.8-0.4-0.8-0.8l0,0c0-0.4,0.4-0.8,0.8-0.8h1.6c0.4,0,0.8,0.4,0.8,0.8l0,0
	C32.5,33.1,32.1,33.5,31.7,33.5z"/>
</svg>
