<?xml version="1.0" encoding="utf-8"?>
<!-- Generator: Adobe Illustrator 21.0.2, SVG Export Plug-In . SVG Version: 6.00 Build 0)  -->
<svg version="1.1" id="图层_1" xmlns="http://www.w3.org/2000/svg" xmlns:xlink="http://www.w3.org/1999/xlink" x="0px" y="0px"
	 viewBox="0 0 841.9 624.6" style="enable-background:new 0 0 841.9 624.6;" xml:space="preserve">
<style type="text/css">
	.st0{fill:none;}
	.st1{fill:none;stroke:#FFFFFF;stroke-width:40;stroke-miterlimit:10;}
	.st2{fill:#FFFFFF;}
</style>
<rect x="42.5" y="-20.5" class="st0" width="819.8" height="748.8"/>
<path class="st1" d="M421.4,23.8c-171.9,0-311.2,131.5-311.2,293.7"/>
<path class="st1" d="M421.4,23.8c171.9,0,311.2,131.5,311.2,293.7"/>
<path class="st2" d="M129.7,317.5c0-19.8,2.2-39.2,6.5-57.8c-10.2-5.6-21.6-8.8-33.6-8.8c-43.6,0-79,41.5-79,92.7
	c0,51.2,53,92.7,96.7,92.7c13.3,0,24.2-3.9,32.9-10.6C138,392.4,129.7,355.9,129.7,317.5z"/>
<path class="st2" d="M740.6,250.9c-12.1,0-23.6,3.2-33.9,9c4.2,18.6,6.4,37.9,6.4,57.6c0,38.3-8.3,74.8-23.3,107.9
	c8.7,6.9,19.7,10.8,33.1,10.8c43.6,0,96.7-41.5,96.7-92.7C819.6,292.4,784.2,250.9,740.6,250.9z"/>
<path class="st2" d="M693.5,417c0,0-30.9,88.2-128.9,146.1l10,15.9l0.6,1.2c0,0,86.3-48.9,129.5-138.8l13.9-25.6L693.5,417z"/>
<ellipse transform="matrix(0.9277 -0.3734 0.3734 0.9277 -181.9609 239.4302)" class="st2" cx="527" cy="589.3" rx="50.8" ry="30.8"/>
<path class="st2" d="M421.4,79c-139.6,0-252.7,106.8-252.7,238.5S281.8,556,421.4,556s252.7-106.8,252.7-238.5S561,79,421.4,79z
	 M422.5,483.3c-114.5-1-136.5-108-136.5-108s51,42,133,43s129-31,140-44C559,374.3,537,484.3,422.5,483.3z"/>
</svg>
