<?xml version="1.0" encoding="utf-8"?>
<!-- Generator: Adobe Illustrator 21.0.2, SVG Export Plug-In . SVG Version: 6.00 Build 0)  -->
<svg version="1.1" id="图层_1" xmlns="http://www.w3.org/2000/svg" xmlns:xlink="http://www.w3.org/1999/xlink" x="0px" y="0px"
	 viewBox="0 0 40 40" style="enable-background:new 0 0 40 40;" xml:space="preserve">
<style type="text/css">
	.st0{fill:#FFFFFF;}
	.st1{fill:#F05D4A;}
	.st2{fill:#F39801;}
</style>
<path class="st0" d="M21.8,11.2h-3c-0.9,0-1.6-0.7-1.6-1.6l0,0c0-0.9,0.7-1.6,1.6-1.6h3c0.9,0,1.6,0.7,1.6,1.6l0,0
	C23.4,10.5,22.7,11.2,21.8,11.2z"/>
<path class="st0" d="M12.3,11.2h-3c-0.9,0-1.6-0.7-1.6-1.6l0,0C7.7,8.7,8.4,8,9.3,8h3c0.9,0,1.6,0.7,1.6,1.6l0,0
	C13.9,10.5,13.2,11.2,12.3,11.2z"/>
<path class="st0" d="M21.8,17.7h-3c-0.9,0-1.6-0.7-1.6-1.6l0,0c0-0.9,0.7-1.6,1.6-1.6h3c0.9,0,1.6,0.7,1.6,1.6l0,0
	C23.4,17,22.7,17.7,21.8,17.7z"/>
<path class="st0" d="M12.3,17.7h-3c-0.9,0-1.6-0.7-1.6-1.6l0,0c0-0.9,0.7-1.6,1.6-1.6h3c0.9,0,1.6,0.7,1.6,1.6l0,0
	C13.9,17,13.2,17.7,12.3,17.7z"/>
<path class="st0" d="M21.8,24.2h-3c-0.9,0-1.6-0.7-1.6-1.6l0,0c0-0.9,0.7-1.6,1.6-1.6h3c0.9,0,1.6,0.7,1.6,1.6l0,0
	C23.4,23.5,22.7,24.2,21.8,24.2z"/>
<path class="st0" d="M12.3,24.2h-3c-0.9,0-1.6-0.7-1.6-1.6l0,0c0-0.9,0.7-1.6,1.6-1.6h3c0.9,0,1.6,0.7,1.6,1.6l0,0
	C13.9,23.5,13.2,24.2,12.3,24.2z"/>
<path class="st0" d="M21.8,30.4h-3c-0.9,0-1.6-0.7-1.6-1.6l0,0c0-0.9,0.7-1.6,1.6-1.6h3c0.9,0,1.6,0.7,1.6,1.6l0,0
	C23.4,29.7,22.7,30.4,21.8,30.4z"/>
<path class="st0" d="M12.3,30.4h-3c-0.9,0-1.6-0.7-1.6-1.6l0,0c0-0.9,0.7-1.6,1.6-1.6h3c0.9,0,1.6,0.7,1.6,1.6l0,0
	C13.9,29.7,13.2,30.4,12.3,30.4z"/>
<path class="st1" d="M31.7,33.5h-1.6c-0.4,0-0.8-0.4-0.8-0.8l0,0c0-0.4,0.4-0.8,0.8-0.8h1.6c0.4,0,0.8,0.4,0.8,0.8l0,0
	C32.5,33.1,32.1,33.5,31.7,33.5z"/>
<path class="st2" d="M1.1,6.4c0,0-1.7,8.5,10.9,21.1c0.1,0.1,0.2,0.2,0.3,0.3c0.1,0.1,0.2,0.2,0.3,0.3
	c12.6,12.6,21.1,10.9,21.1,10.9c0.5-0.1,1.6-0.4,2-0.8c0,0,1.9-1.6,3.1-3.5c1.2-2-1.1-4.9-2.3-6.2c-2.6-2.6-5-3.1-6-2.4
	c-0.5,0.3-2.4,2.4-2.4,2.4c-0.4,0.4-1.1,0.7-1.6,0.7c0,0-3.3,0-9.4-6c-6-6.1-6-9.4-6-9.4c0-0.5,0.3-1.3,0.7-1.6c0,0,2.3-2.3,2.4-2.4
	c0.9-1.1-0.6-3.9-2.4-6c-1.2-1.4-2.1-2.2-3.9-2.6C5.4,0.6,1.2,3.8,1.1,6.4z"/>
</svg>
