<?xml version="1.0" encoding="utf-8"?>
<!-- Generator: Adobe Illustrator 19.0.0, SVG Export Plug-In . SVG Version: 6.00 Build 0)  -->
<svg version="1.1" id="图层_1" xmlns="http://www.w3.org/2000/svg" xmlns:xlink="http://www.w3.org/1999/xlink" x="0px" y="0px"
	 viewBox="0 0 595.3 841.9" style="enable-background:new 0 0 595.3 841.9;" xml:space="preserve">
<style type="text/css">
	.st0{fill-rule:evenodd;clip-rule:evenodd;fill:#6AB324;}
</style>
<g>
	<path class="st0" d="M188.8,505.3c-21,0-38.1,17.1-38.1,38.1c0,21,17.1,38.1,38.1,38.1c21,0,38.1-17.1,38.1-38.1
		C226.9,522.4,209.8,505.3,188.8,505.3z"/>
	<path class="st0" d="M394.8,508c-21,0-38.1,17.1-38.1,38.1c0,21,17.1,38.1,38.1,38.1c21,0,38.1-17.1,38.1-38.1
		C432.9,525,415.8,508,394.8,508z"/>
	<path class="st0" d="M594.6,147.7c0,0-96,17.4-152.6,0c-91-27.9-138.8-69.5-138.8-69.5s-47.7,41.6-138.6,69.5
		c-56.6,17.4-152.5,0-152.5,0S-5.2,335.5,15.6,492c20.8,156.5,287.7,274.7,287.7,274.7S570.4,648.5,591.2,492
		C612,335.5,594.6,147.7,594.6,147.7z M128,290.2h94.7c4.9,0,9,4,9,9c0,4.9-4,9-9,9H128c-4.9,0-9-4-9-9
		C119.1,294.2,123.1,290.2,128,290.2z M109.2,349.1h94.7c4.9,0,9,4,9,9c0,4.9-4,9-9,9h-94.7c-4.9,0-9-4-9-9
		C100.3,353.1,104.3,349.1,109.2,349.1z M81.5,417c0-5,4-9,9-9h94.7c5,0,9,4,9,9c0,4.9-4,9-9,9H90.4C85.5,425.9,81.5,421.9,81.5,417
		z M525.3,495.5c0,0.3,0,0.6,0,0.9c-1.1,27.1-23.5,48.9-50.9,48.9h-23.5c0,0.3,0,0.5,0,0.8c0,30.9-25.2,56.1-56.1,56.1
		c-30.9,0-56-25.2-56-56.1c0-0.3,0-0.5,0-0.8h-93.9c-1,30.1-25.7,54.2-56,54.2c-30.3,0-55-24.2-56-54.2H98.5c-5,0-9-6.2-9-11.2
		s4-11.2,9-11.2h38.2c8.2-20.8,28.5-35.6,52.1-35.6c23.6,0,43.9,14.7,52.1,35.5h102.8c8.8-19.3,28.4-32.8,51-32.8
		c22.7,0,42.3,13.6,51.1,33H470c18.2,0,33.1-10.5,33.1-28.8v-86.8H346.5c-10.6,0-12.9-6.3-12.9-11.3c0-0.3,0-0.6,0.1-0.9
		c-0.1-0.4-0.1-0.8-0.1-1.2v-90.6c0-18.2-10.5-38.5-28.7-38.5h-31.4c0,0-0.1,0-0.1,0H169.7c-5,0-9-5-9-11.1c0-6.1,4-11.1,9-11.1h101
		c0,0,0,0,0.1,0h33.7c27.4,0,49.8,21.7,50.9,48.8c0,0.3,0.1,0.6,0.1,0.9v7.2h66.1c2.5,0,4.7,1,6.4,2.7l82.6,82.6h5.5
		c0.1,0,0.1,0,0.2,0s0.1,0,0.2,0h0.1c0.1,0,0.2,0,0.3,0c0.1,0,0.3,0,0.4,0c0.1,0,0.3,0,0.4,0.1c4.3,0.7,7.5,4.4,7.5,8.9V495.5z"/>
	<polygon class="st0" points="485.2,385 417.9,317.7 355.5,317.7 355.5,385 	"/>
</g>
</svg>
