<?xml version="1.0" encoding="utf-8"?>
<!-- Generator: Adobe Illustrator 19.0.0, SVG Export Plug-In . SVG Version: 6.00 Build 0)  -->
<svg version="1.1" id="图层_1" xmlns="http://www.w3.org/2000/svg" xmlns:xlink="http://www.w3.org/1999/xlink" x="0px" y="0px"
	 viewBox="0 0 300 300" style="enable-background:new 0 0 300 300;" xml:space="preserve">
<style type="text/css">
	.st0{fill:#CCCCCC;}
</style>
<path id="XMLID_7_" class="st0" d="M150,1.2C67.2,1.2,0,68.4,0,151.2s67.2,150,150,150s150-67.2,150-150S232.8,1.2,150,1.2z
	 M198.1,141.2c2.7-3.1,6.7-5,11.2-5c8.3,0,15,6.7,15,15c0,8.3-6.7,15-15,15c-4.4,0-8.4-1.9-11.2-5h-32.3v58h32.3
	c2.7-3.1,6.7-5,11.2-5c8.3,0,15,6.7,15,15c0,8.3-6.7,15-15,15c-4.4,0-8.4-1.9-11.2-5h-32.3h-20v-20v-58h-22.1
	c-3.9,8.8-12.7,15-22.9,15c-13.8,0-25-11.2-25-25s11.2-25,25-25c10.3,0,19.1,6.2,22.9,15h22.1v-58V63.4v-0.3h52.3
	c2.7-3.1,6.7-5,11.2-5c8.3,0,15,6.7,15,15c0,8.3-6.7,15-15,15c-4.4,0-8.4-1.9-11.2-5h-32.3v58H198.1z"/>
</svg>
