<?xml version="1.0" encoding="utf-8"?>
<!-- Generator: Adobe Illustrator 19.0.0, SVG Export Plug-In . SVG Version: 6.00 Build 0)  -->
<svg version="1.1" id="图层_1" xmlns="http://www.w3.org/2000/svg" xmlns:xlink="http://www.w3.org/1999/xlink" x="0px" y="0px"
	 viewBox="0 0 300 300" style="enable-background:new 0 0 300 300;" xml:space="preserve">
<style type="text/css">
	.st0{fill-rule:evenodd;clip-rule:evenodd;fill:#DA251E;}
</style>
<path class="st0" d="M285.7,246.5l11.8-11.5c3.3-3.2,3.3-8.3,0-11.5L167.9,97.4c0-0.1,0-0.1-0.1-0.2L156,85.7c-0.1,0-0.1,0-0.2-0.1
	l-0.2-0.2c-3.3-3.2-8.6-3.2-11.8,0L132,96.9C131,97.8,2.3,224.4,2.3,224.4c-3.1,3-3.1,7.8,0,10.8l11.8,11.5c3.1,3,8.1,3,11.1,0
	l124.5-121.1l124.2,120.8C277.2,249.6,282.5,249.6,285.7,246.5z"/>
</svg>
