<?xml version="1.0" standalone="no"?><!DOCTYPE svg PUBLIC "-//W3C//DTD SVG 1.1//EN" "http://www.w3.org/Graphics/SVG/1.1/DTD/svg11.dtd"><svg t="1493368602322" class="icon" style="" viewBox="0 0 1024 1024" version="1.1" xmlns="http://www.w3.org/2000/svg" p-id="1078" xmlns:xlink="http://www.w3.org/1999/xlink" width="48" height="48"><defs><style type="text/css"></style></defs><path d="M512 27.884308c-267.342769 0-484.115692 216.694154-484.115692 484.155077 0 267.342769 216.694154 484.076308 484.115692 484.076308 267.342769 0 484.115692-216.694154 484.115692-484.076308S779.421538 27.884308 512 27.884308zM512 953.107692c-243.239385 0-441.107692-197.868308-441.107692-441.068308 0-243.239385 197.868308-441.107692 441.107692-441.107692s441.107692 197.868308 441.107692 441.107692C953.107692 755.239385 755.239385 953.107692 512 953.107692z" p-id="1079" fill="#ba1e17"></path><path d="M606.365538 781.824 340.086154 515.544615 606.365538 249.344 651.933538 294.951385 431.379692 515.544615 651.933538 736.137846Z" p-id="1080" fill="#ba1e17"></path></svg>