<?xml version="1.0" encoding="utf-8"?>
<!-- Generator: Adobe Illustrator 21.0.0, SVG Export Plug-In . SVG Version: 6.00 Build 0)  -->
<svg version="1.1" id="图层_1" xmlns="http://www.w3.org/2000/svg" xmlns:xlink="http://www.w3.org/1999/xlink" x="0px" y="0px"
	 viewBox="0 0 60 60" style="enable-background:new 0 0 60 60;" xml:space="preserve">
<style type="text/css">
	.st0{fill:#040000;}
</style>
<path class="st0" d="M-100-56.3c-16.7,0-30,13.3-30,30s13.3,30,30,30c16.7,0,30-13.3,30-30S-83.6-56.3-100-56.3z M-100,0.5
	c-14.7,0-26.7-12-26.7-26.7c0-14.7,12-26.7,26.7-26.7c14.7,0,26.7,12,26.7,26.7C-73.3-11.5-85.3,0.5-100,0.5z"/>
<path class="st0" d="M-100.1-17.9c-0.9,0-1.6-0.7-1.6-1.6c0,0,0,0,0,0v-20.3c0-0.9,0.7-1.6,1.6-1.6s1.6,0.7,1.6,1.6v20.3
	C-98.5-18.6-99.2-17.9-100.1-17.9L-100.1-17.9z"/>
<path class="st0" d="M-103.1-11.9c0,1.8,1.4,3.2,3.2,3.2c1.8,0,3.2-1.4,3.2-3.2c0,0,0,0,0,0c0-1.8-1.4-3.2-3.2-3.2
	C-101.7-15.1-103.1-13.7-103.1-11.9C-103.1-11.9-103.1-11.9-103.1-11.9z"/>
<path d="M49.5-42.2c-8,0-15.5-3.1-21.2-8.8c-5.7-5.7-8.8-13.2-8.8-21.2c0-8,3.1-15.5,8.8-21.2c5.7-5.7,13.2-8.8,21.2-8.8
	c8,0,15.6,3.1,21.2,8.8c11.7,11.7,11.7,30.7,0,42.4C65.1-45.3,57.5-42.2,49.5-42.2L49.5-42.2L49.5-42.2L49.5-42.2L49.5-42.2z
	 M49.5-98.3c-7,0-13.5,2.7-18.5,7.6c-4.9,4.9-7.6,11.5-7.6,18.5c0,7,2.7,13.5,7.6,18.5c4.9,4.9,11.5,7.6,18.5,7.6
	c7,0,13.5-2.7,18.5-7.6c10.2-10.2,10.2-26.7,0-36.9C63-95.6,56.5-98.3,49.5-98.3L49.5-98.3L49.5-98.3L49.5-98.3L49.5-98.3z M38.8-64
	c0,0,3.5,5.6,10.7,5.6c7.1,0,11.8-5.6,11.8-5.6s2.7,0,2.7,2.8c0,0-4.6,6.6-14.5,6.6s-13.1-6.6-13.1-6.6S36.3-64,38.8-64L38.8-64
	L38.8-64L38.8-64z M40.8-81.9c-2,0-3.7,1.6-3.7,3.7c0,2,1.7,3.7,3.7,3.7c2,0,3.7-1.6,3.7-3.7C44.5-80.2,42.8-81.9,40.8-81.9
	L40.8-81.9L40.8-81.9L40.8-81.9L40.8-81.9z M59.6-81.9c-2,0-3.7,1.6-3.7,3.7c0,2,1.6,3.7,3.7,3.7c2,0,3.7-1.6,3.7-3.7
	C63.3-80.2,61.6-81.9,59.6-81.9L59.6-81.9L59.6-81.9L59.6-81.9L59.6-81.9z"/>
<path d="M30,0C13.4,0,0,13.4,0,30c0,16.6,13.4,30,30,30c16.6,0,30-13.4,30-30C60,13.4,46.6,0,30,0z M30,56.3
	C15.5,56.3,3.7,44.5,3.7,30C3.7,15.5,15.5,3.8,30,3.8c14.5,0,26.2,11.8,26.2,26.2C56.2,44.5,44.5,56.3,30,56.3z M18.8,19.5h-3
	c-1.2,0-2.3,1-2.3,2.3c0,1.2,1,2.2,2.3,2.2h3c1.2,0,2.2-1,2.2-2.2C21,20.5,20,19.5,18.8,19.5z M44.3,19.5h-18c-1.2,0-2.2,1-2.2,2.3
	c0,1.2,1,2.2,2.2,2.2h18c1.2,0,2.2-1,2.2-2.2C46.5,20.5,45.5,19.5,44.3,19.5L44.3,19.5z M18.8,28.5h-3c-1.2,0-2.3,1-2.3,2.3
	c0,1.2,1,2.3,2.3,2.3h3c1.2,0,2.2-1,2.2-2.3C21,29.5,20,28.5,18.8,28.5z M44.3,28.5h-18c-1.2,0-2.2,1-2.2,2.3c0,1.2,1,2.3,2.2,2.3
	h18c1.2,0,2.2-1,2.2-2.3C46.5,29.5,45.5,28.5,44.3,28.5L44.3,28.5z M18.8,37.5h-3c-1.2,0-2.3,1-2.3,2.3c0,1.2,1,2.2,2.3,2.2h3
	c1.2,0,2.2-1,2.2-2.2C21,38.5,20,37.5,18.8,37.5z M44.3,37.5h-18c-1.2,0-2.2,1-2.2,2.3c0,1.2,1,2.2,2.2,2.2h18c1.2,0,2.2-1,2.2-2.2
	C46.5,38.5,45.5,37.5,44.3,37.5L44.3,37.5z"/>
</svg>
