<?xml version="1.0" encoding="utf-8"?>
<!-- Generator: Adobe Illustrator 21.0.0, SVG Export Plug-In . SVG Version: 6.00 Build 0)  -->
<svg version="1.1" id="图层_1" xmlns="http://www.w3.org/2000/svg" xmlns:xlink="http://www.w3.org/1999/xlink" x="0px" y="0px"
	 viewBox="0 0 60 60" style="enable-background:new 0 0 60 60;" xml:space="preserve">
<style type="text/css">
	.st0{fill:#DA251E;}
</style>
<path class="st0" d="M30,0C13.3,0,0,13.3,0,30s13.3,30,30,30s30-13.3,30-30S46.4,0,30,0z M30,56.7c-14.7,0-26.7-12-26.7-26.7
	S15.3,3.3,30,3.3s26.7,12,26.7,26.7S44.7,56.7,30,56.7z"/>
<path class="st0" d="M29.9,38.3c-0.9,0-1.6-0.7-1.6-1.6l0,0V16.5c0-0.9,0.7-1.6,1.6-1.6s1.6,0.7,1.6,1.6v20.3
	C31.5,37.6,30.8,38.3,29.9,38.3L29.9,38.3z"/>
<path class="st0" d="M26.9,44.3c0,1.8,1.4,3.2,3.2,3.2c1.8,0,3.2-1.4,3.2-3.2l0,0c0-1.8-1.4-3.2-3.2-3.2
	C28.3,41.1,26.9,42.6,26.9,44.3L26.9,44.3z"/>
<path d="M49.5-42.2c-8,0-15.5-3.1-21.2-8.8s-8.8-13.2-8.8-21.2s3.1-15.5,8.8-21.2s13.2-8.8,21.2-8.8s15.6,3.1,21.2,8.8
	c11.7,11.7,11.7,30.7,0,42.4C65.1-45.3,57.5-42.2,49.5-42.2L49.5-42.2L49.5-42.2L49.5-42.2L49.5-42.2z M49.5-98.3
	c-7,0-13.5,2.7-18.5,7.6c-4.9,4.9-7.6,11.5-7.6,18.5s2.7,13.5,7.6,18.5c4.9,4.9,11.5,7.6,18.5,7.6S63-48.8,68-53.7
	c10.2-10.2,10.2-26.7,0-36.9C63-95.6,56.5-98.3,49.5-98.3L49.5-98.3L49.5-98.3L49.5-98.3L49.5-98.3z M38.8-64c0,0,3.5,5.6,10.7,5.6
	c7.1,0,11.8-5.6,11.8-5.6s2.7,0,2.7,2.8c0,0-4.6,6.6-14.5,6.6s-13.1-6.6-13.1-6.6S36.3-64,38.8-64L38.8-64L38.8-64L38.8-64z
	 M40.8-81.9c-2,0-3.7,1.6-3.7,3.7c0,2,1.7,3.7,3.7,3.7s3.7-1.6,3.7-3.7C44.5-80.2,42.8-81.9,40.8-81.9L40.8-81.9L40.8-81.9
	L40.8-81.9L40.8-81.9z M59.6-81.9c-2,0-3.7,1.6-3.7,3.7c0,2,1.6,3.7,3.7,3.7c2,0,3.7-1.6,3.7-3.7C63.3-80.2,61.6-81.9,59.6-81.9
	L59.6-81.9L59.6-81.9L59.6-81.9L59.6-81.9z"/>
</svg>
