<?xml version="1.0" encoding="utf-8"?>
<!-- Generator: Adobe Illustrator 19.0.0, SVG Export Plug-In . SVG Version: 6.00 Build 0)  -->
<svg version="1.1" id="图层_1" xmlns="http://www.w3.org/2000/svg" xmlns:xlink="http://www.w3.org/1999/xlink" x="0px" y="0px"
	 viewBox="0 0 300 300" style="enable-background:new 0 0 300 300;" xml:space="preserve">
<style type="text/css">
	.st0{fill-rule:evenodd;clip-rule:evenodd;fill:#CCCCCC;}
</style>
<path class="st0" d="M237.1,136.1l0.1,0.1c-2.2,1.3-3.7,3.6-3.7,6.3h-0.4c0.2,2.5,0.4,5,0.4,7.5c0,45.6-36.9,82.5-82.5,82.5
	c-24.7,0-46.8-10.9-61.9-28.1l-0.3,0.3c-1.4-1.4-3.2-2.2-5.3-2.2c-4.1,0-7.5,3.4-7.5,7.5c0,2.8,1.6,5.2,3.9,6.5
	c17.8,19,43,31,71.1,31c53.8,0,97.5-43.7,97.5-97.5c0-1.1-0.1-2.1-0.2-3.2l49-29.4c2.3,10.5,3.6,21.4,3.6,32.6
	c0,82.8-67.2,150-150,150C84.8,300,28.7,257.1,8.8,197.6l56-33.6l-0.1-0.1c2.2-1.3,3.7-3.6,3.7-6.3c0-0.1-0.1-0.2-0.1-0.3l0.4,0
	c-0.2-2.4-0.4-4.7-0.4-7.1c0-45.6,36.9-82.5,82.5-82.5c24.7,0,46.8,10.9,61.9,28.1l0.3-0.3c1.4,1.4,3.2,2.2,5.3,2.2
	c4.1,0,7.5-3.4,7.5-7.5c0-2.8-1.6-5.2-3.9-6.5c-17.8-19-43-31-71.1-31c-53.8,0-97.5,43.7-97.5,97.5c0,1.1,0.1,2.1,0.2,3.2l-49,29.4
	C2.3,172.1,1,161.2,1,150C1,67.2,68.2,0,151,0c66.2,0,122.3,42.9,142.2,102.4L237.1,136.1z M154.2,105.4c-24.9,0-45,20.1-45,45
	s20.1,45,45,45s45-20.1,45-45S179,105.4,154.2,105.4z"/>
</svg>
