<?xml version="1.0" encoding="utf-8"?>
<!-- Generator: Adobe Illustrator 19.0.0, SVG Export Plug-In . SVG Version: 6.00 Build 0)  -->
<svg version="1.1" id="图层_1" xmlns="http://www.w3.org/2000/svg" xmlns:xlink="http://www.w3.org/1999/xlink" x="0px" y="0px"
	 viewBox="0 0 595.3 841.9" style="enable-background:new 0 0 595.3 841.9;" xml:space="preserve">
<style type="text/css">
	.st0{fill:#6AB324;}
	.st1{fill:#F39800;}
	.st2{fill:#FFFFFF;}
</style>
<path class="st0" d="M188.8,505.3c-21,0-38.1,17.1-38.1,38.1s17.1,38.1,38.1,38.1s38.1-17.1,38.1-38.1
	C226.9,522.4,209.8,505.3,188.8,505.3z"/>
<path class="st0" d="M394.8,508c-21,0-38.1,17.1-38.1,38.1s17.1,38.1,38.1,38.1s38.1-17.1,38.1-38.1C432.9,525,415.8,508,394.8,508z
	"/>
<path class="st1" d="M589.2,139.6c0,0-96,17.4-152.6,0c-91-27.9-138.8-69.5-138.8-69.5s-47.7,41.6-138.6,69.5
	c-56.6,17.4-152.5,0-152.5,0s-17.3,187.8,3.5,344.3s287.7,274.7,287.7,274.7S565,640.4,585.8,483.9S589.2,139.6,589.2,139.6z"/>
<path class="st2" d="M347.5,547l48.8,48.6c5,4.9,12.8,6.3,18.5,2.1c7.8-4.9,8.5-15.4,2.1-21.7l-24.6-24.9h82.9
	c7.8,0,14.2-6.3,14.2-14c0-7.7-6.4-14-14.2-14h-82.9l24.3-24.5c5.7-5.6,5.7-14,0-19.6c-5.7-5.6-14.2-5.6-19.9,0l-49.2,48.3
	C341.9,533,341.9,541.3,347.5,547z"/>
<path class="st2" d="M371.2,459.3c0-0.1,0-0.1,0-0.2c-13.8-10.2-28.3-17.2-42.1-22.1c32.9-20,55.3-55.1,55.3-96.4
	c0-62.7-51.8-112.2-114.8-112.2c-63,0-114.8,50.3-114.8,112.9c0,40.6,21.7,76.4,54.6,95.7C115,470.8,106.6,566.5,106.6,567.9
	c-0.7,7.6,4.9,14.5,12.6,14.5c7.7,0.7,14.7-4.8,15.4-12.4c0-4.8,10.5-109.5,133.7-116.4c3.1,0,47.4-1.6,85.7,26.9c0,0,0,0,0,0
	c2.4,2.1,5.6,3.4,9.1,3.4c7.7,0,13.9-6.1,13.9-13.6C376.9,465.8,374.7,461.8,371.2,459.3z M269.6,426.1c-47.6,0-86.8-37.9-86.8-85.4
	c0-47.5,39.2-84.7,86.8-84.7c47.6,0,86.8,37.9,86.8,85.4C356.4,388.9,317.2,426.1,269.6,426.1z"/>
</svg>
