<?xml version="1.0" encoding="utf-8"?>
<!-- Generator: Adobe Illustrator 19.0.0, SVG Export Plug-In . SVG Version: 6.00 Build 0)  -->
<svg version="1.1" id="图层_1" xmlns="http://www.w3.org/2000/svg" xmlns:xlink="http://www.w3.org/1999/xlink" x="0px" y="0px"
	 viewBox="0 0 595.3 841.9" style="enable-background:new 0 0 595.3 841.9;" xml:space="preserve">
<style type="text/css">
	.st0{fill:#6AB324;}
	.st1{fill:#FFFFFF;}
</style>
<path class="st0" d="M188.8,505.3c-21,0-38.1,17.1-38.1,38.1s17.1,38.1,38.1,38.1s38.1-17.1,38.1-38.1
	C226.9,522.4,209.8,505.3,188.8,505.3z"/>
<path class="st0" d="M394.8,508c-21,0-38.1,17.1-38.1,38.1s17.1,38.1,38.1,38.1s38.1-17.1,38.1-38.1C432.9,525,415.8,508,394.8,508z
	"/>
<path class="st0" d="M589.2,144.7c0,0-96,17.4-152.6,0c-91-27.9-138.8-69.5-138.8-69.5s-47.7,41.6-138.6,69.5
	c-56.6,17.4-152.5,0-152.5,0S-10.6,332.5,10.2,489s287.7,274.7,287.7,274.7S565,645.5,585.8,489S589.2,144.7,589.2,144.7z"/>
<path class="st1" d="M426.5,368.6c19.9-13,33-35.2,33-60.5c0-40.1-33-72.6-73.8-72.6S312,268,312,308.1c0,25.2,13.1,47.5,33,60.5
	c-38,14.9-64.9,50-66.3,91.3c0,0,1.5,11.8,14.7,11.2c10.6,0.6,16.5-11.2,16.5-11.2c7.1-45,32.9-69.4,75.9-69.4s71.1,24.4,78.2,69.4
	c0,0,5.3,9.9,14.5,10.5c12.3,1.4,14.4-10.5,14.4-10.5C491.5,418.6,464.5,383.5,426.5,368.6z M385.7,351.8
	c-24.5,0-44.4-19.6-44.4-43.7c0-24.1,19.9-43.7,44.4-43.7c24.5,0,44.4,19.6,44.4,43.7C430.1,332.2,410.3,351.8,385.7,351.8z
	 M492.4,493.5v-2.2c0-7.8-6.8-14.2-15.3-14.2c-8.4,0-15.3,6.3-15.3,14.2v81.5c0,0.3,0,0.7,0.1,1.1H132.1V267.7l59.5,0
	c0.9,0.2,1.9,0.3,2.9,0.3h82.8c7.9,0,14.4-6.7,14.4-15s-6.5-15-14.4-15h-82.8c0,0-0.1,0-0.1,0h-66.7c-13.5,0-24.5,10.8-24.5,24.1
	v317.3c0,13.3,11,24.1,24.5,24.1h340.6c13.5,0,24.5-10.8,24.5-24.1l0.1-85.9L492.4,493.5z M170.6,345.7h82.8c7.9,0,14.4-6.7,14.4-15
	c0-8.3-6.5-15-14.4-15h-82.8c-7.9,0-14.4,6.7-14.4,15C156.3,339,162.7,345.7,170.6,345.7z M168.5,435.9h82.8c7.9,0,14.4-6.7,14.4-15
	s-6.4-15-14.4-15h-82.8c-7.9,0-14.4,6.7-14.4,15S160.6,435.9,168.5,435.9z M154.2,517.5c0,8.1,6.3,14.7,14,14.7h228.1
	c7.8,0,14-6.5,14-14.7c0-8.1-6.3-14.7-14-14.7l-228.1,0C160.4,502.8,154.2,509.4,154.2,517.5z"/>
</svg>
