<?xml version="1.0" encoding="utf-8"?>
<!-- Generator: Adobe Illustrator 19.0.0, SVG Export Plug-In . SVG Version: 6.00 Build 0)  -->
<svg version="1.1" id="图层_1" xmlns="http://www.w3.org/2000/svg" xmlns:xlink="http://www.w3.org/1999/xlink" x="0px" y="0px"
	 viewBox="0 0 300 300" style="enable-background:new 0 0 300 300;" xml:space="preserve">
<style type="text/css">
	.st0{fill-rule:evenodd;clip-rule:evenodd;fill:#DA251E;}
</style>
<path class="st0" d="M273.9,85.5L149.7,206.4L25.3,85.2c-3.1-3-8.1-3-11.1,0L2.3,96.7c-3.1,3-3.1,7.8,0,10.8
	c0,0,128.7,126.6,129.7,127.5l11.8,11.5c3.3,3.2,8.6,3.2,11.8,0l0.2-0.2c0.1,0,0.1,0,0.2-0.1l11.8-11.5c0.1-0.1,0-0.1,0.1-0.2
	l129.6-126.1c3.3-3.2,3.3-8.3,0-11.5l-11.8-11.5C282.5,82.4,277.2,82.4,273.9,85.5z"/>
</svg>
