<?xml version="1.0" encoding="utf-8"?>
<!-- Generator: Adobe Illustrator 19.0.0, SVG Export Plug-In . SVG Version: 6.00 Build 0)  -->
<svg version="1.1" id="图层_1" xmlns="http://www.w3.org/2000/svg" xmlns:xlink="http://www.w3.org/1999/xlink" x="0px" y="0px"
	 viewBox="0 0 595.3 841.9" style="enable-background:new 0 0 595.3 841.9;" xml:space="preserve">
<style type="text/css">
	.st0{fill:#6AB324;}
	.st1{fill:#FFFFFF;}
</style>
<path class="st0" d="M188.8,505.3c-21,0-38.1,17.1-38.1,38.1s17.1,38.1,38.1,38.1s38.1-17.1,38.1-38.1
	C226.9,522.4,209.8,505.3,188.8,505.3z"/>
<path class="st0" d="M394.8,508c-21,0-38.1,17.1-38.1,38.1s17.1,38.1,38.1,38.1s38.1-17.1,38.1-38.1C432.9,525,415.8,508,394.8,508z
	"/>
<path class="st0" d="M597.2,147.7c0,0-96,17.4-152.6,0c-91-27.9-138.8-69.5-138.8-69.5s-47.7,41.6-138.6,69.5
	c-56.6,17.4-152.5,0-152.5,0S-2.6,335.5,18.2,492s287.7,274.7,287.7,274.7S573,648.5,593.8,492S597.2,147.7,597.2,147.7z"/>
<g>
	<path class="st1" d="M504.7,341.6l-31.9-71.9c-3.8-21.4-22.5-37.6-45-37.6H184.2c-22.4,0-41.2,16.3-45,37.6l-31.9,71.9
		c-17.3,6.5-29.7,23.2-29.7,42.8v121.8c0,22.6,16.5,41.4,38.1,45.1v0.6c0,33.6,27.3,60.9,60.9,60.9c33.6,0,60.9-27.3,60.9-60.9h137
		c0,33.6,27.3,60.9,60.9,60.9c33.6,0,60.9-27.3,60.9-60.9v-0.6c21.6-3.6,38.1-22.5,38.1-45.1V384.4
		C534.4,364.8,522.1,348.1,504.7,341.6L504.7,341.6L504.7,341.6L504.7,341.6z M504,506.2c0,8.4-6.8,15.2-15.2,15.2h-22.8v30.5
		c0,16.8-13.6,30.4-30.5,30.4c-16.8,0-30.4-13.6-30.4-30.4v-30.5H207v30.5c0,16.8-13.6,30.4-30.5,30.4c-16.8,0-30.5-13.6-30.5-30.4
		v-30.5h-22.8c-8.4,0-15.2-6.8-15.2-15.2l0-121.8c0-8.4,6.8-15.2,15.2-15.2h5.1l40.6-91.4c0-8.4,6.8-15.2,15.2-15.2h243.7
		c8.4,0,15.2,6.8,15.2,15.2l40.6,91.4h5.1c8.4,0,15.2,6.8,15.2,15.2L504,506.2L504,506.2L504,506.2z M199.4,399.6h213.2
		c8.4,0,15.2-6.8,15.2-15.2c0-8.4-6.8-15.2-15.2-15.2H199.4c-8.4,0-15.2,6.8-15.2,15.2C184.2,392.8,191,399.6,199.4,399.6
		L199.4,399.6L199.4,399.6z M184.2,430c-16.8,0-30.5,13.6-30.5,30.5c0,16.8,13.6,30.5,30.5,30.5c16.8,0,30.5-13.6,30.5-30.5
		C214.7,443.7,201,430,184.2,430L184.2,430L184.2,430z M427.8,430c-16.8,0-30.5,13.6-30.5,30.5c0,16.8,13.6,30.5,30.5,30.5
		c16.8,0,30.5-13.6,30.5-30.5C458.3,443.7,444.7,430,427.8,430L427.8,430L427.8,430z"/>
</g>
</svg>
