<?xml version="1.0" encoding="utf-8"?>
<!-- Generator: Adobe Illustrator 19.0.0, SVG Export Plug-In . SVG Version: 6.00 Build 0)  -->
<svg version="1.1" id="图层_1" xmlns="http://www.w3.org/2000/svg" xmlns:xlink="http://www.w3.org/1999/xlink" x="0px" y="0px"
	 viewBox="0 0 595.3 841.9" style="enable-background:new 0 0 595.3 841.9;" xml:space="preserve">
<style type="text/css">
	.st0{fill-rule:evenodd;clip-rule:evenodd;fill:#6AB324;}
</style>
<path class="st0" d="M589.5,136.6c0,0-96,17.4-152.6,0C345.9,108.7,298.1,67,298.1,67s-47.7,41.6-138.6,69.5
	C102.9,154,7,136.6,7,136.6s-17.3,187.8,3.5,344.3c20.8,156.5,287.7,274.7,287.7,274.7S565.2,637.4,586,480.9
	C606.8,324.4,589.5,136.6,589.5,136.6z M489,553.4c-2,6.5-3,9.9-3,10.3l-2.8,15l-2.6,10.9c-44.8,1.2-88.6,1.9-131.3,1.9
	c-42.7,0.1-69.3-0.2-79.7-0.7c-10.4-0.5-22.3-2.5-35.8-5.9c-13.5-3.4-22.4-7.9-26.7-13.6l-35.6-37.2c-8.1,21.6-14.2,35.2-18.2,40.9
	l-10.5,15.6c-9.4-9.3-15-14.7-16.8-16.2L102,554.8c6.1-7.7,12.8-17.5,20-29.4c7.3-11.9,11.4-32.2,12.3-60.9l2.8-58.1
	c18.5,2.2,35.3,3.4,50.4,3.6c-1.8,24.7-2.7,40.7-2.8,48l-0.8,22.3c6.3,7.4,12.3,15.1,17.8,23.1V391.4h-43.5l-42.7,1.4V343l42.3,1.4
	h37.2v-28.7h-33.2l-27.7,1v-48.4l27.7,1h33.2l-1.4-38.3h51.4l-1.4,38.3h33l28.5-1v48.4l-28.5-1h-33v28.7h35.4l40.3-1.4v12.3l36.8,1
	h60.5v-49.6h-59.9l-36.4,0.8v-48.8l36.4,0.8h75.9l33.4-0.8l-1,36v73.9l1,36.8l-33.4-0.8H369V454c0,4.7,1.1,8.3,3.2,10.7
	c2.2,2.4,11.8,3.8,28.9,4.3c13.5,0.5,22.1-0.9,25.9-4.4c3.8-3.4,5.9-6.9,6.3-10.4l3.6-22.1c7.3,4.2,12.9,7.2,16.8,8.9l16.8,7.9
	l13.8,6.5c-3.5,10.3-6.5,19.4-8.9,27.3c-2.4,8-4.8,14-7.2,18.2c-2.4,4.2-5.2,7.6-8.5,10.1c-3.3,2.6-7.6,4.5-12.9,5.8
	c-5.3,1.3-13.9,2.1-26,2.5c-12.1,0.4-21.4,0.5-28,0.2c-26.6-0.7-43.9-2-52-3.9c-8.1-2-13.9-5.5-17.3-10.6c-3.4-5.1-5.2-17-5.2-35.6
	l-0.2-76.5l-39.1-1.4h-27.7v38.1H283l23.5-1v49.8l-23.5-1h-31.6l-0.2,52.6c7.4,3.1,14.8,5.6,22.2,7.5c7.4,1.9,34.3,3.2,81,3.8
	c46.6,0.7,93.4-1.4,140.2-6.3C492.9,540.7,491.1,546.9,489,553.4z"/>
</svg>
