<?xml version="1.0" encoding="utf-8"?>
<!-- Generator: Adobe Illustrator 21.0.0, SVG Export Plug-In . SVG Version: 6.00 Build 0)  -->
<svg version="1.1" id="图层_1" xmlns="http://www.w3.org/2000/svg" xmlns:xlink="http://www.w3.org/1999/xlink" x="0px" y="0px"
	 viewBox="0 0 60 60" style="enable-background:new 0 0 60 60;" xml:space="preserve">
<style type="text/css">
	.st0{fill:#040000;}
</style>
<path class="st0" d="M-76.3-46.3c-16.7,0-30,13.3-30,30s13.3,30,30,30c16.7,0,30-13.3,30-30S-59.8-46.3-76.3-46.3z M-76.3,10.5
	c-14.7,0-26.7-12-26.7-26.7C-103-31-91-43-76.3-43c14.7,0,26.7,12,26.7,26.7C-49.5-1.5-61.5,10.5-76.3,10.5z"/>
<path class="st0" d="M-76.4-7.9c-0.9,0-1.6-0.7-1.6-1.6c0,0,0,0,0,0v-20.3c0-0.9,0.7-1.6,1.6-1.6s1.6,0.7,1.6,1.6v20.3
	C-74.8-8.6-75.5-7.9-76.4-7.9L-76.4-7.9z"/>
<path class="st0" d="M-79.4-1.9c0,1.8,1.4,3.2,3.2,3.2S-73-0.1-73-1.9c0,0,0,0,0,0c0-1.8-1.4-3.2-3.2-3.2C-78-5.1-79.4-3.7-79.4-1.9
	C-79.4-1.9-79.4-1.9-79.4-1.9z"/>
<path d="M30,60.3c-8,0-15.5-3.1-21.2-8.8C3.1,45.8,0,38.3,0,30.3c0-8,3.1-15.5,8.8-21.2C14.5,3.4,22,0.3,30,0.3
	c8,0,15.6,3.1,21.2,8.8c11.7,11.7,11.7,30.7,0,42.4C45.6,57.2,38,60.3,30,60.3L30,60.3L30,60.3L30,60.3L30,60.3z M30,4.2
	c-7,0-13.5,2.7-18.5,7.6c-4.9,4.9-7.6,11.5-7.6,18.5c0,7,2.7,13.5,7.6,18.5c4.9,4.9,11.5,7.6,18.5,7.6c7,0,13.5-2.7,18.5-7.6
	c10.2-10.2,10.2-26.7,0-36.9C43.5,6.9,37,4.2,30,4.2L30,4.2L30,4.2L30,4.2L30,4.2z M19.3,38.5c0,0,3.5,5.6,10.7,5.6
	c7.1,0,11.8-5.6,11.8-5.6s2.7,0,2.7,2.8c0,0-4.6,6.6-14.5,6.6s-13.1-6.6-13.1-6.6S16.8,38.5,19.3,38.5L19.3,38.5L19.3,38.5
	L19.3,38.5z M21.3,20.6c-2,0-3.7,1.6-3.7,3.7c0,2,1.7,3.7,3.7,3.7c2,0,3.7-1.6,3.7-3.7C25,22.3,23.3,20.6,21.3,20.6L21.3,20.6
	L21.3,20.6L21.3,20.6L21.3,20.6z M40.1,20.6c-2,0-3.7,1.6-3.7,3.7c0,2,1.6,3.7,3.7,3.7c2,0,3.7-1.6,3.7-3.7
	C43.8,22.3,42.1,20.6,40.1,20.6L40.1,20.6L40.1,20.6L40.1,20.6L40.1,20.6z"/>
</svg>
